<mxfile host="app.diagrams.net" modified="2024-04-26T17:32:13.927Z" agent="Mozilla/5.0 (Macintosh; Intel Mac OS X 10.15; rv:126.0) Gecko/20100101 Firefox/126.0" etag="s6fSHp1QDxc2vrJiG3DA" version="24.3.1" type="github">
  <diagram name="Page-1" id="Dk3pRrhf-9PVM9fTG6Fe">
    <mxGraphModel dx="1876" dy="1788" grid="1" gridSize="10" guides="1" tooltips="1" connect="1" arrows="1" fold="1" page="1" pageScale="1" pageWidth="850" pageHeight="1100" math="0" shadow="0">
      <root>
        <mxCell id="0" />
        <mxCell id="1" parent="0" />
        <mxCell id="henKd6EaJzy8oyuAMLlX-1" value="&lt;div&gt;Group&lt;/div&gt;" style="whiteSpace=wrap;html=1;align=center;" vertex="1" parent="1">
          <mxGeometry x="650" y="200" width="100" height="40" as="geometry" />
        </mxCell>
        <mxCell id="henKd6EaJzy8oyuAMLlX-2" value="User" style="whiteSpace=wrap;html=1;align=center;" vertex="1" parent="1">
          <mxGeometry x="250" y="200" width="100" height="40" as="geometry" />
        </mxCell>
        <mxCell id="henKd6EaJzy8oyuAMLlX-13" style="rounded=0;orthogonalLoop=1;jettySize=auto;html=1;exitX=0.5;exitY=1;exitDx=0;exitDy=0;entryX=0.5;entryY=0;entryDx=0;entryDy=0;endArrow=none;endFill=0;" edge="1" parent="1" source="henKd6EaJzy8oyuAMLlX-3" target="henKd6EaJzy8oyuAMLlX-2">
          <mxGeometry relative="1" as="geometry" />
        </mxCell>
        <mxCell id="henKd6EaJzy8oyuAMLlX-3" value="Id" style="ellipse;whiteSpace=wrap;html=1;align=center;fontStyle=4;" vertex="1" parent="1">
          <mxGeometry x="240" y="90" width="100" height="40" as="geometry" />
        </mxCell>
        <mxCell id="henKd6EaJzy8oyuAMLlX-4" value="&lt;div&gt;Name&lt;/div&gt;" style="ellipse;whiteSpace=wrap;html=1;align=center;" vertex="1" parent="1">
          <mxGeometry x="130" y="130" width="100" height="40" as="geometry" />
        </mxCell>
        <mxCell id="henKd6EaJzy8oyuAMLlX-11" style="rounded=0;orthogonalLoop=1;jettySize=auto;html=1;exitX=1;exitY=1;exitDx=0;exitDy=0;entryX=0;entryY=0.5;entryDx=0;entryDy=0;endArrow=none;endFill=0;" edge="1" parent="1">
          <mxGeometry relative="1" as="geometry">
            <mxPoint x="205.35533905932743" y="225.14213562373095" as="sourcePoint" />
            <mxPoint x="250" y="221" as="targetPoint" />
          </mxGeometry>
        </mxCell>
        <mxCell id="henKd6EaJzy8oyuAMLlX-5" value="SignUp Date" style="ellipse;whiteSpace=wrap;html=1;align=center;" vertex="1" parent="1">
          <mxGeometry x="120" y="190" width="100" height="40" as="geometry" />
        </mxCell>
        <mxCell id="henKd6EaJzy8oyuAMLlX-10" style="rounded=0;orthogonalLoop=1;jettySize=auto;html=1;exitX=1;exitY=0;exitDx=0;exitDy=0;entryX=0.25;entryY=1;entryDx=0;entryDy=0;endArrow=none;endFill=0;" edge="1" parent="1">
          <mxGeometry relative="1" as="geometry">
            <mxPoint x="245.35533905932743" y="276.85786437626916" as="sourcePoint" />
            <mxPoint x="275" y="241" as="targetPoint" />
          </mxGeometry>
        </mxCell>
        <mxCell id="henKd6EaJzy8oyuAMLlX-6" value="&lt;div&gt;Phone Number&lt;/div&gt;" style="ellipse;whiteSpace=wrap;html=1;align=center;" vertex="1" parent="1">
          <mxGeometry x="160" y="270" width="100" height="40" as="geometry" />
        </mxCell>
        <mxCell id="henKd6EaJzy8oyuAMLlX-9" style="rounded=0;orthogonalLoop=1;jettySize=auto;html=1;exitX=0;exitY=0;exitDx=0;exitDy=0;endArrow=none;endFill=0;" edge="1" parent="1">
          <mxGeometry relative="1" as="geometry">
            <mxPoint x="304.64466094067257" y="296.85786437626905" as="sourcePoint" />
            <mxPoint x="300" y="241" as="targetPoint" />
          </mxGeometry>
        </mxCell>
        <mxCell id="henKd6EaJzy8oyuAMLlX-7" value="&lt;div&gt;Email&lt;/div&gt;" style="ellipse;whiteSpace=wrap;html=1;align=center;" vertex="1" parent="1">
          <mxGeometry x="290" y="290" width="100" height="40" as="geometry" />
        </mxCell>
        <mxCell id="henKd6EaJzy8oyuAMLlX-12" style="rounded=0;orthogonalLoop=1;jettySize=auto;html=1;exitX=1;exitY=1;exitDx=0;exitDy=0;entryX=0.1;entryY=0;entryDx=0;entryDy=0;entryPerimeter=0;endArrow=none;endFill=0;" edge="1" parent="1" source="henKd6EaJzy8oyuAMLlX-4" target="henKd6EaJzy8oyuAMLlX-2">
          <mxGeometry relative="1" as="geometry" />
        </mxCell>
        <mxCell id="henKd6EaJzy8oyuAMLlX-16" style="rounded=0;orthogonalLoop=1;jettySize=auto;html=1;exitX=0;exitY=1;exitDx=0;exitDy=0;entryX=1;entryY=0;entryDx=0;entryDy=0;endArrow=none;endFill=0;" edge="1" parent="1" source="henKd6EaJzy8oyuAMLlX-15" target="henKd6EaJzy8oyuAMLlX-2">
          <mxGeometry relative="1" as="geometry" />
        </mxCell>
        <mxCell id="henKd6EaJzy8oyuAMLlX-15" value="Adress" style="ellipse;shape=doubleEllipse;margin=3;whiteSpace=wrap;html=1;align=center;" vertex="1" parent="1">
          <mxGeometry x="370" y="120" width="100" height="40" as="geometry" />
        </mxCell>
        <mxCell id="henKd6EaJzy8oyuAMLlX-22" style="rounded=0;orthogonalLoop=1;jettySize=auto;html=1;exitX=0.5;exitY=1;exitDx=0;exitDy=0;endArrow=none;endFill=0;" edge="1" parent="1">
          <mxGeometry relative="1" as="geometry">
            <mxPoint x="450" y="31" as="sourcePoint" />
            <mxPoint x="420" y="121" as="targetPoint" />
          </mxGeometry>
        </mxCell>
        <mxCell id="henKd6EaJzy8oyuAMLlX-17" value="City" style="ellipse;whiteSpace=wrap;html=1;align=center;" vertex="1" parent="1">
          <mxGeometry x="400" y="-10" width="100" height="40" as="geometry" />
        </mxCell>
        <mxCell id="henKd6EaJzy8oyuAMLlX-23" style="rounded=0;orthogonalLoop=1;jettySize=auto;html=1;exitX=0.5;exitY=1;exitDx=0;exitDy=0;entryX=1;entryY=0;entryDx=0;entryDy=0;endArrow=none;endFill=0;" edge="1" parent="1">
          <mxGeometry relative="1" as="geometry">
            <mxPoint x="520" y="81" as="sourcePoint" />
            <mxPoint x="455.35533905932743" y="126.85786437626894" as="targetPoint" />
          </mxGeometry>
        </mxCell>
        <mxCell id="henKd6EaJzy8oyuAMLlX-18" value="Postal Code" style="ellipse;whiteSpace=wrap;html=1;align=center;" vertex="1" parent="1">
          <mxGeometry x="470" y="40" width="100" height="40" as="geometry" />
        </mxCell>
        <mxCell id="henKd6EaJzy8oyuAMLlX-24" style="rounded=0;orthogonalLoop=1;jettySize=auto;html=1;exitX=0;exitY=0.5;exitDx=0;exitDy=0;entryX=1;entryY=0.5;entryDx=0;entryDy=0;endArrow=none;endFill=0;" edge="1" parent="1">
          <mxGeometry relative="1" as="geometry">
            <mxPoint x="500" y="131" as="sourcePoint" />
            <mxPoint x="470" y="141" as="targetPoint" />
          </mxGeometry>
        </mxCell>
        <mxCell id="henKd6EaJzy8oyuAMLlX-19" value="&lt;div&gt;Street&lt;/div&gt;" style="ellipse;whiteSpace=wrap;html=1;align=center;" vertex="1" parent="1">
          <mxGeometry x="500" y="110" width="100" height="40" as="geometry" />
        </mxCell>
        <mxCell id="henKd6EaJzy8oyuAMLlX-21" style="rounded=0;orthogonalLoop=1;jettySize=auto;html=1;exitX=0.5;exitY=1;exitDx=0;exitDy=0;endArrow=none;endFill=0;entryX=0;entryY=0;entryDx=0;entryDy=0;" edge="1" parent="1" target="henKd6EaJzy8oyuAMLlX-15">
          <mxGeometry relative="1" as="geometry">
            <mxPoint x="360" y="71" as="sourcePoint" />
            <mxPoint x="420" y="121" as="targetPoint" />
          </mxGeometry>
        </mxCell>
        <mxCell id="henKd6EaJzy8oyuAMLlX-20" value="Country" style="ellipse;whiteSpace=wrap;html=1;align=center;" vertex="1" parent="1">
          <mxGeometry x="310" y="30" width="100" height="40" as="geometry" />
        </mxCell>
        <mxCell id="henKd6EaJzy8oyuAMLlX-25" value="Post" style="whiteSpace=wrap;html=1;align=center;" vertex="1" parent="1">
          <mxGeometry x="240" y="440" width="100" height="40" as="geometry" />
        </mxCell>
        <mxCell id="henKd6EaJzy8oyuAMLlX-33" style="rounded=0;orthogonalLoop=1;jettySize=auto;html=1;exitX=0.5;exitY=0;exitDx=0;exitDy=0;entryX=1;entryY=0.5;entryDx=0;entryDy=0;endArrow=none;endFill=0;" edge="1" parent="1" source="henKd6EaJzy8oyuAMLlX-26" target="henKd6EaJzy8oyuAMLlX-25">
          <mxGeometry relative="1" as="geometry" />
        </mxCell>
        <mxCell id="henKd6EaJzy8oyuAMLlX-26" value="Publish Date" style="ellipse;whiteSpace=wrap;html=1;align=center;" vertex="1" parent="1">
          <mxGeometry x="370" y="490" width="100" height="40" as="geometry" />
        </mxCell>
        <mxCell id="henKd6EaJzy8oyuAMLlX-27" value="Edit Date" style="ellipse;whiteSpace=wrap;html=1;align=center;" vertex="1" parent="1">
          <mxGeometry x="290" y="540" width="100" height="40" as="geometry" />
        </mxCell>
        <mxCell id="henKd6EaJzy8oyuAMLlX-35" style="rounded=0;orthogonalLoop=1;jettySize=auto;html=1;exitX=1;exitY=0;exitDx=0;exitDy=0;entryX=0.5;entryY=1;entryDx=0;entryDy=0;endArrow=none;endFill=0;" edge="1" parent="1" source="henKd6EaJzy8oyuAMLlX-29" target="henKd6EaJzy8oyuAMLlX-25">
          <mxGeometry relative="1" as="geometry" />
        </mxCell>
        <mxCell id="henKd6EaJzy8oyuAMLlX-29" value="Caption" style="ellipse;whiteSpace=wrap;html=1;align=center;" vertex="1" parent="1">
          <mxGeometry x="170" y="550" width="100" height="40" as="geometry" />
        </mxCell>
        <mxCell id="henKd6EaJzy8oyuAMLlX-37" style="rounded=0;orthogonalLoop=1;jettySize=auto;html=1;exitX=1;exitY=0.5;exitDx=0;exitDy=0;entryX=0;entryY=0.5;entryDx=0;entryDy=0;endArrow=none;endFill=0;" edge="1" parent="1" source="henKd6EaJzy8oyuAMLlX-31" target="henKd6EaJzy8oyuAMLlX-25">
          <mxGeometry relative="1" as="geometry" />
        </mxCell>
        <mxCell id="henKd6EaJzy8oyuAMLlX-31" value="Media URL" style="ellipse;shape=doubleEllipse;margin=3;whiteSpace=wrap;html=1;align=center;" vertex="1" parent="1">
          <mxGeometry x="110" y="440" width="100" height="40" as="geometry" />
        </mxCell>
        <mxCell id="henKd6EaJzy8oyuAMLlX-36" style="rounded=0;orthogonalLoop=1;jettySize=auto;html=1;exitX=1;exitY=0;exitDx=0;exitDy=0;entryX=0;entryY=1;entryDx=0;entryDy=0;endArrow=none;endFill=0;" edge="1" parent="1" source="henKd6EaJzy8oyuAMLlX-32" target="henKd6EaJzy8oyuAMLlX-25">
          <mxGeometry relative="1" as="geometry" />
        </mxCell>
        <mxCell id="henKd6EaJzy8oyuAMLlX-32" value="Id" style="ellipse;whiteSpace=wrap;html=1;align=center;fontStyle=4;" vertex="1" parent="1">
          <mxGeometry x="110" y="500" width="100" height="40" as="geometry" />
        </mxCell>
        <mxCell id="henKd6EaJzy8oyuAMLlX-34" style="rounded=0;orthogonalLoop=1;jettySize=auto;html=1;exitX=0.5;exitY=0;exitDx=0;exitDy=0;entryX=0.83;entryY=0.975;entryDx=0;entryDy=0;entryPerimeter=0;endArrow=none;endFill=0;" edge="1" parent="1" source="henKd6EaJzy8oyuAMLlX-27" target="henKd6EaJzy8oyuAMLlX-25">
          <mxGeometry relative="1" as="geometry" />
        </mxCell>
        <mxCell id="henKd6EaJzy8oyuAMLlX-38" value="Private Message" style="whiteSpace=wrap;html=1;align=center;" vertex="1" parent="1">
          <mxGeometry x="620" y="410" width="100" height="40" as="geometry" />
        </mxCell>
        <mxCell id="henKd6EaJzy8oyuAMLlX-51" style="rounded=0;orthogonalLoop=1;jettySize=auto;html=1;exitX=1;exitY=1;exitDx=0;exitDy=0;entryX=0.25;entryY=0;entryDx=0;entryDy=0;endArrow=none;endFill=0;" edge="1" parent="1" source="henKd6EaJzy8oyuAMLlX-39" target="henKd6EaJzy8oyuAMLlX-38">
          <mxGeometry relative="1" as="geometry" />
        </mxCell>
        <mxCell id="henKd6EaJzy8oyuAMLlX-39" value="Id" style="ellipse;whiteSpace=wrap;html=1;align=center;fontStyle=4;" vertex="1" parent="1">
          <mxGeometry x="540" y="330" width="100" height="40" as="geometry" />
        </mxCell>
        <mxCell id="henKd6EaJzy8oyuAMLlX-52" style="rounded=0;orthogonalLoop=1;jettySize=auto;html=1;exitX=1;exitY=0.5;exitDx=0;exitDy=0;entryX=0;entryY=0.25;entryDx=0;entryDy=0;endArrow=none;endFill=0;" edge="1" parent="1" source="henKd6EaJzy8oyuAMLlX-40" target="henKd6EaJzy8oyuAMLlX-38">
          <mxGeometry relative="1" as="geometry" />
        </mxCell>
        <mxCell id="henKd6EaJzy8oyuAMLlX-40" value="Sent Date" style="ellipse;whiteSpace=wrap;html=1;align=center;" vertex="1" parent="1">
          <mxGeometry x="460" y="370" width="100" height="40" as="geometry" />
        </mxCell>
        <mxCell id="henKd6EaJzy8oyuAMLlX-54" style="rounded=0;orthogonalLoop=1;jettySize=auto;html=1;exitX=1;exitY=0.5;exitDx=0;exitDy=0;entryX=0;entryY=1;entryDx=0;entryDy=0;endArrow=none;endFill=0;" edge="1" parent="1" source="henKd6EaJzy8oyuAMLlX-44" target="henKd6EaJzy8oyuAMLlX-38">
          <mxGeometry relative="1" as="geometry">
            <mxPoint x="600" y="460" as="targetPoint" />
          </mxGeometry>
        </mxCell>
        <mxCell id="henKd6EaJzy8oyuAMLlX-44" value="Body" style="ellipse;whiteSpace=wrap;html=1;align=center;" vertex="1" parent="1">
          <mxGeometry x="480" y="480" width="100" height="40" as="geometry" />
        </mxCell>
        <mxCell id="henKd6EaJzy8oyuAMLlX-53" style="rounded=0;orthogonalLoop=1;jettySize=auto;html=1;exitX=1;exitY=0.5;exitDx=0;exitDy=0;endArrow=none;endFill=0;" edge="1" parent="1" source="henKd6EaJzy8oyuAMLlX-45" target="henKd6EaJzy8oyuAMLlX-38">
          <mxGeometry relative="1" as="geometry" />
        </mxCell>
        <mxCell id="henKd6EaJzy8oyuAMLlX-45" value="Edit Date" style="ellipse;whiteSpace=wrap;html=1;align=center;" vertex="1" parent="1">
          <mxGeometry x="470" y="420" width="100" height="40" as="geometry" />
        </mxCell>
        <mxCell id="henKd6EaJzy8oyuAMLlX-55" style="rounded=0;orthogonalLoop=1;jettySize=auto;html=1;exitX=0.5;exitY=0;exitDx=0;exitDy=0;entryX=0.25;entryY=1;entryDx=0;entryDy=0;endArrow=none;endFill=0;" edge="1" parent="1" source="henKd6EaJzy8oyuAMLlX-46" target="henKd6EaJzy8oyuAMLlX-38">
          <mxGeometry relative="1" as="geometry" />
        </mxCell>
        <mxCell id="henKd6EaJzy8oyuAMLlX-46" value="Read Status" style="ellipse;whiteSpace=wrap;html=1;align=center;" vertex="1" parent="1">
          <mxGeometry x="570" y="520" width="100" height="40" as="geometry" />
        </mxCell>
        <mxCell id="henKd6EaJzy8oyuAMLlX-56" style="rounded=0;orthogonalLoop=1;jettySize=auto;html=1;exitX=0;exitY=0;exitDx=0;exitDy=0;entryX=0.5;entryY=1;entryDx=0;entryDy=0;endArrow=none;endFill=0;" edge="1" parent="1" source="henKd6EaJzy8oyuAMLlX-47" target="henKd6EaJzy8oyuAMLlX-38">
          <mxGeometry relative="1" as="geometry" />
        </mxCell>
        <mxCell id="henKd6EaJzy8oyuAMLlX-47" value="Type" style="ellipse;whiteSpace=wrap;html=1;align=center;" vertex="1" parent="1">
          <mxGeometry x="680" y="510" width="100" height="40" as="geometry" />
        </mxCell>
        <mxCell id="henKd6EaJzy8oyuAMLlX-57" style="rounded=0;orthogonalLoop=1;jettySize=auto;html=1;exitX=0;exitY=0.5;exitDx=0;exitDy=0;entryX=0.75;entryY=1;entryDx=0;entryDy=0;endArrow=none;endFill=0;" edge="1" parent="1" source="henKd6EaJzy8oyuAMLlX-48" target="henKd6EaJzy8oyuAMLlX-38">
          <mxGeometry relative="1" as="geometry" />
        </mxCell>
        <mxCell id="henKd6EaJzy8oyuAMLlX-48" value="Is From Starter" style="ellipse;whiteSpace=wrap;html=1;align=center;" vertex="1" parent="1">
          <mxGeometry x="730" y="460" width="100" height="40" as="geometry" />
        </mxCell>
        <mxCell id="henKd6EaJzy8oyuAMLlX-58" style="rounded=0;orthogonalLoop=1;jettySize=auto;html=1;exitX=0.22;exitY=0.9;exitDx=0;exitDy=0;entryX=1;entryY=0.75;entryDx=0;entryDy=0;endArrow=none;endFill=0;exitPerimeter=0;" edge="1" parent="1" source="henKd6EaJzy8oyuAMLlX-77" target="henKd6EaJzy8oyuAMLlX-38">
          <mxGeometry relative="1" as="geometry">
            <mxPoint x="754.6446609406726" y="414.14213562373106" as="sourcePoint" />
          </mxGeometry>
        </mxCell>
        <mxCell id="henKd6EaJzy8oyuAMLlX-62" style="rounded=0;orthogonalLoop=1;jettySize=auto;html=1;exitX=0;exitY=0;exitDx=0;exitDy=0;entryX=0.75;entryY=1;entryDx=0;entryDy=0;endArrow=none;endFill=0;" edge="1" parent="1" source="henKd6EaJzy8oyuAMLlX-59" target="henKd6EaJzy8oyuAMLlX-1">
          <mxGeometry relative="1" as="geometry" />
        </mxCell>
        <mxCell id="henKd6EaJzy8oyuAMLlX-59" value="Group Description" style="ellipse;whiteSpace=wrap;html=1;align=center;" vertex="1" parent="1">
          <mxGeometry x="710" y="270" width="120" height="40" as="geometry" />
        </mxCell>
        <mxCell id="henKd6EaJzy8oyuAMLlX-63" style="rounded=0;orthogonalLoop=1;jettySize=auto;html=1;exitX=0;exitY=0.5;exitDx=0;exitDy=0;entryX=1;entryY=0.5;entryDx=0;entryDy=0;endArrow=none;endFill=0;" edge="1" parent="1" source="henKd6EaJzy8oyuAMLlX-60" target="henKd6EaJzy8oyuAMLlX-1">
          <mxGeometry relative="1" as="geometry" />
        </mxCell>
        <mxCell id="henKd6EaJzy8oyuAMLlX-60" value="Group Name" style="ellipse;whiteSpace=wrap;html=1;align=center;" vertex="1" parent="1">
          <mxGeometry x="770" y="190" width="100" height="40" as="geometry" />
        </mxCell>
        <mxCell id="henKd6EaJzy8oyuAMLlX-64" style="rounded=0;orthogonalLoop=1;jettySize=auto;html=1;entryX=0.75;entryY=0;entryDx=0;entryDy=0;endArrow=none;endFill=0;" edge="1" parent="1" source="henKd6EaJzy8oyuAMLlX-65" target="henKd6EaJzy8oyuAMLlX-1">
          <mxGeometry relative="1" as="geometry">
            <mxPoint x="730" y="170" as="sourcePoint" />
          </mxGeometry>
        </mxCell>
        <mxCell id="henKd6EaJzy8oyuAMLlX-65" value="Id" style="ellipse;whiteSpace=wrap;html=1;align=center;fontStyle=4;" vertex="1" parent="1">
          <mxGeometry x="700" y="100" width="100" height="40" as="geometry" />
        </mxCell>
        <mxCell id="henKd6EaJzy8oyuAMLlX-66" value="Group Message" style="whiteSpace=wrap;html=1;align=center;" vertex="1" parent="1">
          <mxGeometry x="-70" y="270" width="100" height="40" as="geometry" />
        </mxCell>
        <mxCell id="henKd6EaJzy8oyuAMLlX-67" value="Edit Date" style="ellipse;whiteSpace=wrap;html=1;align=center;" vertex="1" parent="1">
          <mxGeometry x="-170" y="190" width="100" height="40" as="geometry" />
        </mxCell>
        <mxCell id="henKd6EaJzy8oyuAMLlX-79" style="rounded=0;orthogonalLoop=1;jettySize=auto;html=1;exitX=0.5;exitY=0;exitDx=0;exitDy=0;entryX=0.25;entryY=1;entryDx=0;entryDy=0;endArrow=none;endFill=0;" edge="1" parent="1" source="henKd6EaJzy8oyuAMLlX-70" target="henKd6EaJzy8oyuAMLlX-66">
          <mxGeometry relative="1" as="geometry" />
        </mxCell>
        <mxCell id="henKd6EaJzy8oyuAMLlX-70" value="Type" style="ellipse;whiteSpace=wrap;html=1;align=center;" vertex="1" parent="1">
          <mxGeometry x="-130" y="350" width="100" height="40" as="geometry" />
        </mxCell>
        <mxCell id="henKd6EaJzy8oyuAMLlX-80" style="rounded=0;orthogonalLoop=1;jettySize=auto;html=1;exitX=1;exitY=0.5;exitDx=0;exitDy=0;entryX=0;entryY=0.75;entryDx=0;entryDy=0;endArrow=none;endFill=0;" edge="1" parent="1" source="henKd6EaJzy8oyuAMLlX-71" target="henKd6EaJzy8oyuAMLlX-66">
          <mxGeometry relative="1" as="geometry" />
        </mxCell>
        <mxCell id="henKd6EaJzy8oyuAMLlX-71" value="Read Status" style="ellipse;whiteSpace=wrap;html=1;align=center;" vertex="1" parent="1">
          <mxGeometry x="-200" y="300" width="100" height="40" as="geometry" />
        </mxCell>
        <mxCell id="henKd6EaJzy8oyuAMLlX-81" style="rounded=0;orthogonalLoop=1;jettySize=auto;html=1;exitX=1;exitY=0.5;exitDx=0;exitDy=0;entryX=0;entryY=0.5;entryDx=0;entryDy=0;endArrow=none;endFill=0;" edge="1" parent="1" source="henKd6EaJzy8oyuAMLlX-72" target="henKd6EaJzy8oyuAMLlX-66">
          <mxGeometry relative="1" as="geometry" />
        </mxCell>
        <mxCell id="henKd6EaJzy8oyuAMLlX-72" value="Body" style="ellipse;whiteSpace=wrap;html=1;align=center;" vertex="1" parent="1">
          <mxGeometry x="-210" y="240" width="100" height="40" as="geometry" />
        </mxCell>
        <mxCell id="henKd6EaJzy8oyuAMLlX-83" style="rounded=0;orthogonalLoop=1;jettySize=auto;html=1;exitX=0.5;exitY=1;exitDx=0;exitDy=0;entryX=0.5;entryY=0;entryDx=0;entryDy=0;endArrow=none;endFill=0;" edge="1" parent="1" source="henKd6EaJzy8oyuAMLlX-73" target="henKd6EaJzy8oyuAMLlX-66">
          <mxGeometry relative="1" as="geometry" />
        </mxCell>
        <mxCell id="henKd6EaJzy8oyuAMLlX-73" value="Sent Date" style="ellipse;whiteSpace=wrap;html=1;align=center;" vertex="1" parent="1">
          <mxGeometry x="-70" y="170" width="100" height="40" as="geometry" />
        </mxCell>
        <mxCell id="henKd6EaJzy8oyuAMLlX-75" value="Id" style="ellipse;whiteSpace=wrap;html=1;align=center;fontStyle=4;" vertex="1" parent="1">
          <mxGeometry x="20" y="200" width="100" height="40" as="geometry" />
        </mxCell>
        <mxCell id="henKd6EaJzy8oyuAMLlX-78" style="rounded=0;orthogonalLoop=1;jettySize=auto;html=1;exitX=0;exitY=0;exitDx=0;exitDy=0;entryX=0.75;entryY=1;entryDx=0;entryDy=0;endArrow=none;endFill=0;" edge="1" parent="1" source="henKd6EaJzy8oyuAMLlX-76" target="henKd6EaJzy8oyuAMLlX-66">
          <mxGeometry relative="1" as="geometry" />
        </mxCell>
        <mxCell id="henKd6EaJzy8oyuAMLlX-76" value="Media URL" style="ellipse;shape=doubleEllipse;margin=3;whiteSpace=wrap;html=1;align=center;" vertex="1" parent="1">
          <mxGeometry x="-10" y="360" width="100" height="40" as="geometry" />
        </mxCell>
        <mxCell id="henKd6EaJzy8oyuAMLlX-77" value="Media URL" style="ellipse;shape=doubleEllipse;margin=3;whiteSpace=wrap;html=1;align=center;" vertex="1" parent="1">
          <mxGeometry x="730" y="370" width="100" height="40" as="geometry" />
        </mxCell>
        <mxCell id="henKd6EaJzy8oyuAMLlX-82" style="rounded=0;orthogonalLoop=1;jettySize=auto;html=1;exitX=1;exitY=1;exitDx=0;exitDy=0;entryX=0.16;entryY=0;entryDx=0;entryDy=0;entryPerimeter=0;endArrow=none;endFill=0;" edge="1" parent="1" source="henKd6EaJzy8oyuAMLlX-67" target="henKd6EaJzy8oyuAMLlX-66">
          <mxGeometry relative="1" as="geometry" />
        </mxCell>
        <mxCell id="henKd6EaJzy8oyuAMLlX-84" style="rounded=0;orthogonalLoop=1;jettySize=auto;html=1;exitX=0;exitY=1;exitDx=0;exitDy=0;entryX=0.84;entryY=0;entryDx=0;entryDy=0;entryPerimeter=0;endArrow=none;endFill=0;" edge="1" parent="1" source="henKd6EaJzy8oyuAMLlX-75" target="henKd6EaJzy8oyuAMLlX-66">
          <mxGeometry relative="1" as="geometry" />
        </mxCell>
      </root>
    </mxGraphModel>
  </diagram>
</mxfile>
